<?xml version="1.0" encoding="utf-8"?>
<!-- Generator: Adobe Illustrator 12.0.0, SVG Export Plug-In . SVG Version: 6.00 Build 51448)  -->
<!DOCTYPE svg PUBLIC "-//W3C//DTD SVG 1.1//EN" "http://www.w3.org/Graphics/SVG/1.1/DTD/svg11.dtd" [
	<!ENTITY ns_svg "http://www.w3.org/2000/svg">
	<!ENTITY ns_xlink "http://www.w3.org/1999/xlink">
]>
<svg  version="1.1" id="Layer_1" xmlns="&ns_svg;" xmlns:xlink="&ns_xlink;" width="1474.815" height="938.883"
	 viewBox="0 0 1474.815 938.883" overflow="visible" enable-background="new 0 0 1474.815 938.883" xml:space="preserve">
<path fill-rule="evenodd" clip-rule="evenodd" d="M126.984,0c43.136,11.857,86.617,23.37,130.983,33.996
	c-6.638,34.356-16.993,64.997-20.997,101.987c-27.364-6.144-53.977-15.57-82.99-9.999c-4.448-4.066-9.889-0.881-14.998-2
	c-7.852-1.719-13.945-7.905-20.998-7.999c-6.348,6.007-17.605,1.692-21.997-3c2.231-9.27,2.045-23.771-9.999-21.997
	C85.432,80.754,71.95,88.6,70.991,79.99c2.112-3.888,8.154-3.845,7.999-9.999c1.552-4.218-5.552,0.219-4-4
	c-1.091-4.757,3.252-4.08,6.999-4c-7.258-13.512-7.977-38.563-4.999-53.993c11.597,9.733,23.589,19.072,42.995,20.998
	c1.052-2.33,2.544-9.388,4.999-7c3.208,4.728-2.331,0.144-3,4c1.22,5.779,4.196,9.802,7.999,12.999
	C128.579,25.443,133.363,10.672,126.984,0z"/>
<path fill-rule="evenodd" clip-rule="evenodd" d="M259.968,33.996c6.569,2.096,14.73,2.601,20.997,5
	c-2.419,11.246-4.161,23.169-7.999,32.996c3.079,6.263,8.402,12.799,4,20.997c1.304,5.029,4.535,8.13,8.999,9.999
	c4.706,9.626,5.312,23.351,17.998,24.997c-2.634,12.697-8.643,22.02-11.998,33.996c1.052,3.614,3.795,5.537,5.999,7.999
	c5.244-0.059,8.225-6.689,11.999-4.999c-0.196,16.527,3.603,29.06,12.999,35.995c-1.97,5.512-0.687,11.402,3,13.999
	c6.072-5.282,21.299-2.425,31.996-1c5.71,1.044,3.11-6.222,8.999-5c8.883,10.386,1.589,26.363-1,42.995
	c-2.839,18.237-3.801,36.685-7,51.993c-53.997-6.662-102.693-18.625-152.98-28.996c5.792-25.871,11.128-52.197,19.997-74.991
	c-1.383-2.283-2.28-5.052-6.999-4c1.866-7.466,3.362-15.302,11.999-15.998c3.392-10.273,9.181-18.149,15.998-24.997
	c-1.72-11.917-8.967-14.539-6.999-30.996C243.045,98.271,256.778,58.375,259.968,33.996z"/>
<path fill-rule="evenodd" clip-rule="evenodd" d="M282.965,38.995C370.514,58.433,464.496,71.438,561.93,80.99
	c-3.389,46.938-7.557,93.097-11.998,138.983c-59.733-5.259-117.381-12.603-173.979-20.998c-1.779,4.886-2.445,10.887-3,16.998
	c-3.798-1.535-1.805-8.861-6.999-8.999c-5.825-1.492-3.577,5.089-7.999,5c-10.163-1.959-27.968-3.574-31.996,0
	c-2.824-3.038-1.452-6.398-1-10.999c-9.718-7.946-12.999-22.33-13.998-38.995c-6.734-0.401-7.063,5.602-12.999,6
	c-8.951-11.672,7.613-25.125,7.999-39.995c-15.14-4.19-12.73-25.931-25.997-31.996c0.826-7.002,1.362-17.39-4-22.997
	C278.283,61.643,280.851,50.546,282.965,38.995z"/>
<path fill-rule="evenodd" clip-rule="evenodd" d="M1431.821,53.993c3.845,17.152,10.334,31.66,13.998,48.994
	c3.333,0,6.666,0,9.999,0c2.338,4.994,1.207,13.457,6.999,14.998c3.483-0.294-0.084-2.706,2-3c6.27,0.396,6.867,6.464,9.998,9.999
	c-3.761,10.904-14.326,15.003-20.997,22.997c-2.629,0.296-0.787-3.879-3.999-3c-4.713,1.589-9.604,6.168-8.999,9.999
	c-1.583,0.083-3.814-0.48-4,1c-2.341-0.325-0.971-4.362-2.999-5c-6.604,0.869-0.596,12.254-3,17.998
	c-1.674,1.326-3.351,2.649-6.999,2c0.992,7.945-9.307,12.015-12.999,8.999c-6.603,6.871-5.891,18.92-8.998,30.996
	c-3.973-2.027-4.261-7.738-9.999-7.999c-4.316-24.014-14.031-42.628-18.998-65.992c1.904,0.429,2.513,2.154,5,2
	c-1.57-13.568,5.897-18.099,7.999-27.996c-3.76-3.071-4.678-15.147,0-17.998c-3.269-17.073,6.074-28.913,10.998-40.995
	c3.799,1.201,2.364,7.635,7.999,6.999C1412.319,51.559,1420.902,46.124,1431.821,53.993z"/>
<path fill-rule="evenodd" clip-rule="evenodd" d="M773.903,74.991c2.355-0.022,2.944,1.722,5.999,1
	c3.32,6.679,1.717,18.282,6.999,22.998c7.059,1.274,16.658,0.007,18.998,5.999c7.144,1.478,9.242-2.089,11.998-5
	c12.715-0.191,18.146,11.589,29.997,8.999c0.555,8.272,9.491,2.696,7.999,8.999c9.303,3.135,15.145-1.811,19.997-6
	c3.031-0.031,0.969,5.031,3.999,5c11.988-4.928,18.025,4.376,27.997,2c-9.879,6.791-20.261,8.564-28.996,14.998
	c-13.19,9.714-19.992,26.367-34.996,33.996c0,6.666,0,13.332,0,19.998c-4.92,6.079-13.423,8.574-13.998,18.998
	c0.238,3.428,5.34,1.992,5.999,5c-3.583,7.902-2.447,15.209-2,25.997c3.686,4.622,10.15,6.514,14.998,9.999
	c4.013,2.884,5.91,6.422,9.999,9.999c6.244,5.461,18.479,6.066,15.998,20.997c-42.88,2.115-87.009,2.98-131.983,3
	c-2.926-25.071,7.886-63.879-9.999-73.991c1.542-2.79,5.347-3.318,6.999-6c3.189-11.5-3.183-21.378-4.999-31.996
	c-1.999-11.689,0.672-24.692-2-35.995c-1.516-6.412-5.283-10.611-6-15.998c-1.209-9.099,3.361-21.559-2-28.997
	c13.154-1.15,31.887,0.772,47.994,0C775.207,86.293,773.259,79.345,773.903,74.991z"/>
<path fill-rule="evenodd" clip-rule="evenodd" d="M722.91,87.989c4.911,9.347,0.736,19.252,2,29.996
	c0.688,5.846,4.485,10.62,5.999,16.998c2.573,10.84,0.193,23.872,2,34.995c1.352,8.328,7.16,16.254,5,24.997
	c-63.61,0.285-122.357-4.294-181.978-7.999c1.687-36.642,5.331-71.326,8.999-105.987C616.189,84.723,667.227,88.679,722.91,87.989z"
	/>
<path fill-rule="evenodd" clip-rule="evenodd" d="M91.989,93.988c3.32,3.527,4.554,14.577,1,18.998
	c3.063,3.269,7.625,5.039,10.999,7.999c4.961-0.371,12.172,1.507,12.998-3c6.914,0.294,12.895,6.195,19.998,7.999
	c2.121,0.539,6.193-1.487,8.999-1c3.207,0.556,3.733,2.902,5.999,3c12.591,0.541,25.104-2.426,37.996-1
	c16.583,1.835,31.516,9.503,47.994,10.999c0.215,8.727,7.042,7.208,7,13.998c-0.052,8.173-14.561,13.108-13.999,23.997
	c-7.549,3.45-12.472,9.525-13.998,18.998c-1.099,4.765,5.956,1.376,5.999,5c-7.669,23.327-13.051,48.941-18.998,73.991
	c-64.437-12.22-122.757-30.557-181.977-47.994c-4.341-8.474,2.302-18.432,1-29.996c23.104-28.557,35.104-68.216,48.994-105.987
	C81.491,84.304,83.114,93.708,91.989,93.988z"/>
<path fill-rule="evenodd" clip-rule="evenodd" d="M953.881,133.983c-8.257,5.408-15.221,12.109-16.998,23.997
	c3.065,2.087,5.017-3.852,7.999-5c11.916-0.251,14.81,8.521,20.998,13.998c3.111,2.378,5.464-2.267,7.998-2
	c3.328,0.351,4.754,4.823,10.999,2c5.774-2.611,7.71-8.67,13.998-9.999c8.331-1.76,15.977,0.564,21.997-5
	c2.256,0.745,0.392,5.608,1,7.999c6.153,7.064,15.744-1.045,22.997-2c-0.816,8.815,0.313,15.686,6.999,16.998
	c-14.309,2.722-23.102,4.22-38.995,1c-2.016,9.649-22.315,1.015-20.997,13.998c-4.201-7.335-10.548,4.553-14.998-1
	c-6.07,6.928-7.235,18.762-11.998,26.997c-5.57-3.096-5.324-12.007-6-19.998c-1.133-2.533-4.432-2.901-7.999-3
	c0.723-3.056-1.021-3.644-0.999-6c-20.437,0.105-31.854-8.808-50.994-9.999c-2.554-2.112-2.787-6.545-6.999-7
	c5.597-2.735,11.282-5.382,14.998-9.999C930.922,159.685,928.913,133.346,953.881,133.983z"/>
<path fill-rule="evenodd" clip-rule="evenodd" d="M1365.829,139.982c1.862-0.956,3.342,2.995,4,0
	c8.1,19.564,14.535,40.791,19.997,62.992c4.142,3.19,7.528,7.137,10.999,10.999c-7.497,12.531-24.819,20.468-42.995,18.998
	c-1.473-16.674,1.491-35.082,0-52.993c2.077-4.256,6.823-5.842,8.999-9.999C1366.131,160.283,1360.699,149.479,1365.829,139.982z"/>
<path fill-rule="evenodd" clip-rule="evenodd" d="M1360.83,150.981c3.688,11.683,6.056,23.068-5.999,26.997
	c4.293,17.147-2.5,40.161,1.999,55.993c-4.86,2.139-10.345,3.653-16.997,4c-2.531-10.468-0.738-25.259-10.999-27.997
	c-1.304-15.221-5.606-30.748-8.999-47.994C1332.958,157.771,1348.041,155.523,1360.83,150.981z"/>
<path fill-rule="evenodd" clip-rule="evenodd" d="M881.89,157.98c-0.91,4.422-4.108,6.557-4.999,10.999
	c0.904,2.415,5.644,0.426,5.999-1c5.924,2.742,12.6,4.731,14.998,10.999c19.208,0.79,29.979,10.016,49.994,9.999
	c-0.739,4.115,3.173,6.77,8.999,6.999c-0.216,9.88,1.926,17.405,5.999,22.997c-3.872,3.5-10.637,13.511-5.999,18.998
	c8.31-8.354,14.341-18.988,20.997-28.997c-7.699,29.57-20.841,63.765-10.999,99.988c-28.081-0.565-62.818,9.854-83.989-2
	c-2.661-4.72-4.466-12.64-1-17.998c-4.052-4.947-5.71-12.287-5.999-20.998c-12.707-10.957-24.767-22.561-39.995-30.996
	c-0.39-10.384-1.477-16.595,2-23.997c-0.362-3.638-2.362-5.637-5.999-6c1.645-8.354,6.808-13.19,13.998-15.998
	c0.357-8.308-1.263-18.594,2-23.997C862.422,171.49,871.315,157.422,881.89,157.98z"/>
<path fill-rule="evenodd" clip-rule="evenodd" d="M1315.836,162.979c7.339,14.135,8.439,32.946,10.998,47.994
	c0.92,1.746,3.126,2.207,5.999,2c6.676,13.965,2.931,32.596,5,49.994c1.491,12.543,8.779,25.463,2.999,35.995
	c2.19,4.247,1.536,6.33,1,11.999c9.494-10.03,27.854-8.136,36.996-19.997c0.85,1.483,2.516,2.149,4.999,2
	c-12.136,11.194-23.657,23.003-44.994,24.997c-1.464,0.869-3.17,1.497-3,4c-1.254-4.279,4.944-9.702,3-17.998
	c-10.87-3.461-20.656-8.007-31.996-10.999c-3.2-6.465-7.483-11.848-12.998-15.998c-38.532,7.129-74.843,16.48-114.986,21.997
	c-0.074-16.406,13.384-19.279,18.998-29.996c-1.388-6.611-7.891-8.107-8.999-14.998c12.83-12.758,37.126-5.355,53.993-10.999
	c6.892-3.441,8.891-11.774,16.998-13.999c-1.142-6.592-3.98-8.759-1-14.998c-1.656-2.01-6.574-0.758-6.999-4
	c0.598-7.735,7.163-9.501,10.998-13.998c2.964-10.368,10.537-16.127,15.998-23.997
	C1290.264,168.07,1304.94,167.416,1315.836,162.979z"/>
<path fill-rule="evenodd" clip-rule="evenodd" d="M1071.866,206.974c-1.329-1.298-3.721-1.318-4,1c4.654,5.678,7.51,13.155,6,24.997
	c-7.361,1.304-3.072,14.26-11.999,13.999c-0.782,7.115,0.992,11.673,5.999,12.998c8.899-3.766,8.686-16.645,17.998-19.998
	c12.547,8.852,19.481,33.754,15.998,51.994c-5.01,0.74,1.33-3.685-2-4c-7.324,10.006-11.127,23.536-15.998,35.996
	c-27.718,4.867-55.111,4.663-84.989,7.999c5.72-13.549,11.045-22.019,9.999-35.996c-0.901-12.042-11.146-20.724-11.998-30.996
	c-0.094-1.128,0.595-10.054,0.999-14.998c0.543-6.631,7.378-14.274,2-20.998c4.587-2.286,4.915-4.904,4.999-9.999
	c5.807-1.193,7.558-6.441,9.999-10.999c2.25,3.623-2.321,8.98-1,14.998c8.739,0.239,7.397-10.903,6-17.998
	c1.867-3.798,9.366-1.965,10.998-6c-2.603-1.063-5.35-1.983-5.999-5c9.789-17.147,27.027,4.25,41.995,3
	C1067.041,201.8,1071.691,202.149,1071.866,206.974z"/>
<path fill-rule="evenodd" clip-rule="evenodd" d="M737.908,197.975c0.836,6.169-5.439,5.227-7,8.999
	c1.712,5.62,6.315,8.35,9.999,11.999c0,19.998,0,39.995,0,59.992c1.343,5.009-5.792,1.54-3.999,7
	c-0.445,4.778,0.858,7.807,3.999,8.999c-1.649,9.278-5.246,18.181-1,22.998c-7.162-9.611-24.05-18.555-37.995-9.999
	c-4.943-2.722-9.772-5.56-13.999-8.999c-48.429-0.898-93.934-4.72-140.982-6.999c0.668-36.327,5.564-68.427,7.999-102.987
	C614.554,193.345,675.905,195.986,737.908,197.975z"/>
<path fill-rule="evenodd" clip-rule="evenodd" d="M548.932,221.972c-2.325,48.002-6.928,93.726-10.999,139.982
	c-64.203-3.789-121.987-13.996-182.978-20.997c7.134-46.86,14.849-93.138,21.998-139.983
	C432.411,209.842,489.985,216.594,548.932,221.972z"/>
<path fill-rule="evenodd" clip-rule="evenodd" d="M1403.824,227.972c-2.579,3.396-5.819,9.907-1.999,13.998
	c3.058,0.725,2.94-1.725,5.999-1c6.59,5.349,6.778,14.893,15.998,14.998c4.779,0.055,5.725-7.259,9.999-3
	c-4.099,4.9-13.668,4.331-15.998,10.999c-1.483-0.85-2.15-2.516-2-4.999c-6.215,0.602-6.257,6.315-7.999,8.999
	c-6.169-3.83-9.435-10.563-13.998-15.998c-18.377,3.62-35.531,8.463-53.993,11.998c0-7.999,0-15.998,0-23.997
	c18.483-1.847,33.555-7.106,50.993-9.999C1391.056,223.457,1402.02,215.343,1403.824,227.972z"/>
<path fill-rule="evenodd" clip-rule="evenodd" d="M21.998,228.971c35.458,9.203,69.098,20.225,104.987,28.997
	c-5.031,25.392-13.075,50.242-19.998,75.99c-2.484,9.239-6.286,21.98-5,28.997c0.9,4.911,9.209,15.146,13.999,21.997
	c33.106,47.36,68.553,103.321,99.987,148.982c-0.537,9.719,5.029,19.696,8.999,27.996c-7.849,4.816-15.323,10.007-14.998,22.997
	c-2.556,1.777-4.369,4.297-7.999,4.999c-0.055,4.611,0.443,9.775-1,12.999c-0.469,3.469,5.426,0.573,5.999,2.999
	c-2.297,12.608-20.371,6.66-34.996,5c-15.377-1.746-32.034-4.868-43.994-5.999c0.147-26.145-7.967-44.026-27.997-49.994
	c3.897-1.799,1.009-8.11,0-10.999c-14.618,0.576-18.336-12.068-25.997-20.997c-11.375,0.377-13.17-8.826-25.997-6.999
	c0.169-2.503-1.536-3.13-3-4c1.94-6.059,2.563-13.435,5-18.997c-1.196-9.374-9.079-16.057-12.999-24.997
	c-1.837-4.189-1.449-9.676-3-13.998c-1.857-5.177-7.886-9.959-7.999-14.998c-0.204-9.029,18.779-20.19,0-22.997
	c-5.03-5.866-8.481-24.953,0-29.997c-2.539,5.27-0.125,11.371,4.999,11.999c2.699-5.392-0.711-13.267-3-16.998
	c4.868-1.336,5.361-3.581,3-7.999c-6.625-1.137-5.648,7.848-5.999,9.999c-4.864-1.802-6.433-6.899-9.999-9.999
	C20.051,351.991-3.263,343.946,5,319.96c0.776-2.253,3.624-3.591,4-5.999c1.938-12.408-3.523-18.692-8.999-28.997
	C7.581,266.548,23.857,256.828,21.998,228.971z"/>
<path fill-rule="evenodd" clip-rule="evenodd" d="M1391.826,253.968c4.44,4.891,9.23,9.434,11.998,15.998
	c-6.608,0.372-7.068,7.654-14.998,8.999c0.87-9.869-2.669-15.328-3.999-22.997C1387.438,255.579,1390.313,255.455,1391.826,253.968z
	"/>
<path fill-rule="evenodd" clip-rule="evenodd" d="M1382.827,256.968c1.807,7.192,4.781,13.216,4,22.997
	c-7.964,5.406-18.518,4.521-24.997,7.999c-7.896,4.237-10.473,12.936-18.998,12.999c5.404-10.492-0.698-23.851-1-34.996
	C1355.428,262.897,1368.598,259.402,1382.827,256.968z"/>
<path fill-rule="evenodd" clip-rule="evenodd" d="M279.965,292.963c-13.7,68.129-24.87,139.71-40.995,206.974
	c-5.735-1.436-8.821-9.139-15.998-5.999c-6.584,7.414-1.787,26.21-4.999,36.995c-1.889,2.756-5.088-4.061-7-6.999
	c-30.114-46.308-60.1-93.477-92.988-140.982c-5.106-7.375-13.087-15.56-13.998-20.998c-1.088-6.495,2.739-18.623,4.999-26.997
	c6.34-23.485,15.133-52.147,19.998-75.99C177.604,272.006,229.767,281.503,279.965,292.963z"/>
<path fill-rule="evenodd" clip-rule="evenodd" d="M1311.836,294.963c-2.673,10.115-7.385,20.006-5.999,31.996
	c7.157,2.175,9.418,9.246,15.998,11.999c-4.595,3.738-7.817,8.848-10.999,13.999c-2.347,0.319-3.753,1.58-6.999,1
	c-2.951,1.382-4.048,4.618-6.999,6c-41.254,7.74-81.81,16.178-123.984,22.997c-0.433-11.124-4.938-28.294-6.999-39.995
	c-2.203-12.502-6.212-31.978-5-36.995c1.787-7.396,11.775-8.852,15.998-13.999c0,3,0,6,0,8.999
	c40.021-4.973,76.643-13.347,112.986-21.998c5.426-1.093,2.863,5.803,8.999,4c1.8,4.533,4.19,8.474,6.999,11.998
	C1307.837,294.963,1309.836,294.963,1311.836,294.963z"/>
<path fill-rule="evenodd" clip-rule="evenodd" d="M875.891,280.965c6.456,8.656-3.879,30.259,14.998,29.996
	c-0.151,9.329,13.62,13.291,14.998,20.998c1.197,6.691-4.665,10.816-6.999,17.998c-5.883,1.783-15.043,0.289-15.998,7
	c-1.599,5.932,3.178,5.488,4,8.999c-0.928,8.072-3.669,14.329-9.999,16.998c0,2.333,0,4.666,0,6.999
	c-4.777-0.222-4.288-5.71-7.999-6.999c-35.318,2.01-70.885,3.773-108.986,3c-2.126-30.203-12.604-52.055-20.997-75.99
	c3.226-3.106,3.128-9.537,3.999-14.999c-2.254-2.745-5.324-4.674-3.999-10.999C785.631,284.027,831.407,283.143,875.891,280.965z"/>
<path fill-rule="evenodd" clip-rule="evenodd" d="M281.965,292.963c24.069,5.594,49.836,9.49,75.991,12.999
	c-2.288,11.376-3.341,23.989-5,35.995c16.751,2.913,33.739,5.59,51.994,7c-6.176,46.818-12.638,93.349-18.998,139.982
	c-47.892-5.102-91.648-14.339-136.983-21.997C259.854,408.835,271.291,351.28,281.965,292.963z"/>
<path fill-rule="evenodd" clip-rule="evenodd" d="M768.904,406.949c-61.375,0.715-119.14-2.178-177.978-4
	c-0.737-13.402,2.148-23.183,2-35.996c-17.523-1.474-33.804-4.191-52.993-4c2.296-22.701,4.198-45.796,6-68.991
	c29.535,1.37,86.755,5.163,125.984,6.999c15.167,0.71,20.077,1.508,28.997,8.999c4.636-2.696,11.876-2.789,17.998-4
	c3.058,3.607,9.34,3.991,12.999,6.999c4.286,1.38,2.408,8.924,9.999,6.999c1.487,8.749,3.688,19.612,6.999,27.997
	c1.137,2.877,4.122,4.994,5,7.999c2.496,8.554,1.127,18.378,2.999,26.997C758.969,392.45,766.021,400.231,768.904,406.949z"/>
<path fill-rule="evenodd" clip-rule="evenodd" d="M1336.833,304.962c1.521,9.853-5.443,11.222-4,20.997
	c3.817,0.893,6.383-1.632,7.999,0c6.327,25.476-5.85,39.73-12.998,56.993c-3.054-1.849,1.154-4.75,0-7.999
	c-10.005-1.327-17.778-4.885-21.997-11.999c4.438-9.227,11.902-15.428,17.998-22.997c-4.593-5.74-9.701-10.963-15.998-14.998
	c-2.112-5.562,5.054-8.224,0-13.999c4.691-1.641,2.817-9.847,5.999-12.998C1321.442,300.355,1328.874,302.922,1336.833,304.962z"/>
<path fill-rule="evenodd" clip-rule="evenodd" d="M1141.857,417.948c-3.235-0.098-2.134-4.532-6.999-3
	c-3.834,6.165-2.995,17.002-6.999,22.997c-7.46-0.54-11.615-4.383-13.998-9.999c-7.776,3.675-13.334,3.38-21.998,6
	c-3.307-3.025-7.475-5.19-14.998-4c0.066-9.585-8.343-9.496-16.998-7.999c-2.992-30.67-6.563-60.761-9.998-90.989
	c21.982-4.167,43.185-8.285,59.992,3c21.037-3.959,30.21-19.783,46.994-27.996c3.774,7.18,10.656,42.278,7.999,52.993
	c-4.037,16.281,0.702,33.3-10.999,39.995C1144.615,396.505,1138.827,408.122,1141.857,417.948z"/>
<path fill-rule="evenodd" clip-rule="evenodd" d="M966.879,310.961c0.856,12.708,9.019,19.812,9.999,37.996
	c1.211,22.454,7.023,52.399,5.999,71.991c-0.133,2.542-1.264,5.59-1,7.999c0.557,5.065,4.46,9.224,4,13.999
	c-0.68,7.052-7.379,14.213-10.999,17.998c3.244,11.908-7.284,21.476-1,26.997c-3.379,1.953-8.205,2.459-10.998,4.999
	c-2.547,6.382,2.946,6.067,1,10.998c-4.515-0.484-6.805-3.194-10.999-3.999c-4.967,1.032-6.51,5.489-9.999,7.999
	c-8-7.412-3.517-18.833-11.998-27.996c-11.27-0.729-16.026-7.971-20.997-14.999c3.027-5.971,5.62-12.376,5.999-20.997
	c-2.461-3.538-8.805-3.193-14.998-3c-3.098-19.899-25.038-20.957-25.997-42.995c1.129-4.871,5.398-6.601,4-13.998
	c1.182-1.151,3.534-1.132,5.999-1c1.161-9.556,7.679-17.461,0-24.997c1.172-0.161,0.843-1.823,1-3
	c13.371-0.328,24.568-11.546,21.997-23.997c-0.922-4.462-5.141-4.503-7.999-7.999c-2.35-2.873-0.008-8.224-4.999-6.999
	C918.067,313.476,943.029,312.775,966.879,310.961z"/>
<path fill-rule="evenodd" clip-rule="evenodd" d="M1047.869,329.959c4.201,33.793,6.618,69.372,11.998,101.987
	c-5.169,1.163-6.367,6.297-13.998,5c-0.775,12.889-14.371,12.958-13.998,26.997c-2.964-0.702-9.422,2.089-7.999-3
	c-4.528,1.804-10.563,2.101-8.999,9.999c-3.121,2.827-3.283-3.367-5.999-4c-4.823,0.843-7.139,4.193-8.999,7.999
	c-3.603-6.984-15.747-2.903-21.997-1c-6.123-13.249,8.489-17.817,9.999-29.996c0.7-5.648-3.324-9.33-4-14.998
	c-1.016-8.52-0.415-18.912-1-28.996c-1.16-20.014-2.602-41.679-3.999-60.993c6.479,4.129,11.113-3.656,16.998-5
	C1011.456,330.402,1030.299,332.642,1047.869,329.959z"/>
<path fill-rule="evenodd" clip-rule="evenodd" d="M590.926,367.954c-3.075,46.585-6,93.321-7.999,140.982
	c-68.119-3.205-132.242-10.407-194.976-18.998c7.012-46.314,11.632-95.021,19.998-139.982
	C466.843,358.054,527.25,364.638,590.926,367.954z"/>
<path fill-rule="evenodd" clip-rule="evenodd" d="M1327.834,398.95c-4.135,2.531-11.201,2.131-16.998,3
	c-3.02-13.978-6.751-27.245-10.998-39.995c1.466-1.737-0.135-5.805,3.999-5.999c3.925-0.184-0.484,6.331,0,7.999
	c1.266,4.355,4.08,4.492,7.999,9.999c3.902,5.483,4.234,15.794,12.999,15.998C1325.47,393.315,1325.544,397.241,1327.834,398.95z"/>
<path fill-rule="evenodd" clip-rule="evenodd" d="M1166.854,361.955c0.814,4.2,4.327,14.325,3.999,22.997
	c10.681-0.318,18.014-3.984,28.997-4c0.508,5.825,1.057,11.608,2.999,15.998c6.169-4.83,12.61-9.387,17.998-14.998
	c8.76,1.428,11.773-2.892,14.998-6.999c5.589,3.693,15.964,5.834,11.998,15.998c-4.985-3.013-9.082-6.916-15.998-7.999
	c0.308,12.639-6.312,18.351-9.998,26.997c-2,0-4,0-5.999,0c-0.229,5.771-1.281,10.717-4,13.998c-5.71,1.044-3.11-6.222-8.999-4.999
	c-2.815,14.899-13.173,30.476-12.998,41.995c-4.92,1.382-9.096,6.675-13.998,4.999c-2.148,2.852-3.453,6.546-6.999,7.999
	c-5.815-3.299-8.313-0.553-11.999,3c-16.101-4.896-23.13-18.865-32.996-29.996c0-2.333,0-4.667,0-7c3.469,0.802,3.844-1.489,6.999-1
	c2.17-6.829,3.114-14.884,5-21.998c3.803-1.47,0.196,4.47,3.999,3c1.794,0.127,2.109-1.224,4-1
	c-3.065-9.395,1.803-13.298,4.999-18.998C1164.86,401.24,1165.856,378.992,1166.854,361.955z"/>
<path fill-rule="evenodd" clip-rule="evenodd" d="M1297.838,361.955c3.045,13.405,10.018,27.816,9.999,40.995
	c5.839,2.547,13.773-0.677,19.997-1c0.763,5.428-1.583,7.749-1,12.999c-3.823,2.509-10.889,1.776-12.998,5.999
	c-3.961-1.038-3.697-6.302-5.999-8.999c-3.386,0.281-5.742,1.591-9.999,1c-2.811-3.019-6.415-10.251-1-12.998
	c-0.447-3.504-4.302-2.046-4.999-3c3.298-3.303,4.668-12.874-2-13.998c1.09-4.243,3.313-7.352,4.999-10.999
	c-4.737-1.05-9.409,6.573-10.998,11.999c0.997,1.336,2.702,1.963,2.999,4c-7.004,13.575,7.121,20.803,6,30.996
	c-7.417-1.916-16.805-1.86-23.997-4c-1.768-7.57,6.897-12.094,6.999-20.998c-0.19-0.81-1.003-0.997-1-2
	c-8.205,2.034-8.809,0.453-16.998-1c-1.665-1.987,0.091-1.271,0-4c-8.977-3.355-11.588-13.076-23.997-12.999
	c-2.869,2.488-6.989,8.976-12.998,5c-3.788,6.877-13.506,7.825-15.998,15.998c-2.156-3.843-2.505-9.494-3-14.998
	C1234.223,374.331,1265.832,367.944,1297.838,361.955z"/>
<path fill-rule="evenodd" clip-rule="evenodd" d="M868.892,384.952c1.242,3.091,3.301,5.365,5.999,7
	c-5.23,19.11,11.305,32.292,22.997,40.995c-0.196,3.863-0.035,7.368,1,9.999c6.59-0.59,11.973,0.025,14.998,3
	c0.546,7.783-6.631,12.467-5.999,18.997c0.805,8.318,12.402,15.297,21.997,16.998c4.785,8.746,5.49,15.935,7.999,25.997
	c1.611,2.055,5.014,2.319,8.999,2c0.125,4.124-1.738,6.261-1,10.998c-7.516-2.516-2.78,7.219-9.999,5
	c1.128,8.793-1.961,13.369-3.999,18.997c-5.643-0.31-8.892,1.773-14.998,1c1.227-6.38,9.926-10.431,3.999-17.998
	c-43,0.994-83.488,4.501-127.983,4c-0.133-31.53,0.562-63.888-1-93.988c-5.994-2.338-9.184-7.481-11.999-12.999
	c-1.103-5.769,5.394-3.939,4-9.999c-0.986-6.238-6.221-2.141-9.999-5c-3.383-7.615-10.527-11.469-10.999-21.997
	C799.924,388.642,834.691,387.081,868.892,384.952z"/>
<path fill-rule="evenodd" clip-rule="evenodd" d="M1232.846,384.952c5.701,2.298,10.097,5.902,15.998,7.999
	c2.478-1.188,0.02-7.313,4-6.999c1.629,8.703,13.491,7.172,17.997,12.999c0.221,6.807-6.624,9.884-2.999,16.998
	c10.514,3.817,22.298,6.365,31.996,10.999c-0.92,8.633,0.28,10.886,2.999,16.998c0.213,4.629-3.565-0.983-4.999,2
	c0.102,6.129,9.413,7.601,6.999,12.998c-6.525-1.473-6.79-9.208-14.998-8.999c2.71,7.289,9.41,10.587,13.998,15.998
	c3.624,0.958,1.017-4.315,3-4.999c3.246,0.58,4.651-0.681,6.999-1c1.754,3.579,3.01,7.655,5.999,9.999
	c-66.051,17.841-140.108,26.29-211.974,35.995c5.423-2.576,9.203-6.795,14.998-8.999c1.643-13.688,15.038-15.625,19.998-25.996
	c3.823,4.796,7.063,8.473,13.998,7.999c3.054-0.209,2.868-3.983,5.999-5c1.933-0.627,15.489,4.185,12.999-4.999
	c5.008,0.4,9.609-4.829,15.998-5.999c-0.954-16.027,11.429-23.586,10.998-41.995c4.815,0.518,3.552,7.113,10.999,5
	c2.379-3.621,2.951-9.047,3.999-13.999c1.667,0,3.333,0,5,0C1226.007,402.776,1235.231,399.668,1232.846,384.952z"/>
<path fill-rule="evenodd" clip-rule="evenodd" d="M1269.842,393.951c1.333,0,2.666,0,3.999,0c0,1.333,0,2.667,0,4
	C1271.297,397.828,1269.964,396.495,1269.842,393.951z"/>
<path fill-rule="evenodd" clip-rule="evenodd" d="M781.902,413.948c-1.06,5.828-4.607,6.661-3.999,11.999
	c0.702,6.165,8.748,10.339,11.998,13.998c1.319,23.678,1.021,48.972,1,73.991c-68.928,2.688-139.078-1.39-205.974-3.999
	c1.05-35.945,3.726-70.265,5.999-104.987c58.805,1.854,116.589,4.729,177.978,4C773.662,410.19,774.715,415.136,781.902,413.948z"/>
<path fill-rule="evenodd" clip-rule="evenodd" d="M1312.836,451.943c-5.767-12.386,1.815-20.583,4-31.996
	c3.286,1.204,7.524-4.756,7.999,0C1314.212,423.99,1323.227,447.669,1312.836,451.943z"/>
<path fill-rule="evenodd" clip-rule="evenodd" d="M1075.865,431.946c7.523-1.19,11.691,0.974,14.999,4
	c3.318,0.319,3.777-2.221,5.999-3c1.771,1.228,5.27,0.729,5.999,3c5.014-0.319,4.219-6.447,9.999-5.999
	c0.872,4.794,3.901,7.43,8.999,7.999c0,3.666,0,7.333,0,10.999c8.146,5.186,9.752,16.911,19.997,19.998
	c-5.036,10.962-19.169,12.827-20.997,26.996c-19.689,16.549-56.971,14.894-93.988,16.998c-17.751,1.01-32.28,5.79-47.994,4
	c-2.236,0.431-0.405,4.928-1,6.999c-13.339-0.674-22.656,2.674-35.995,2c-0.023-3.356,3.962-2.703,5.999-4
	c-0.291-6.525,2.515-11.658-1-15.998c1.502-1.497,4.21-1.789,4.999-3.999c5.161,1.171,8.738,3.927,13.999,4.999
	c3.507-4.225-1.666-8.295-1-12.998c3.403-1.596,7.274-2.724,10.998-4c-4.309-6.835-0.577-9.234,3-14.998
	c8.581-1.013,15.669-3.694,20.997,2c3.538-1.461,4.208-5.791,6.999-7.999c4.538-0.538,2.67,5.329,6.999,4.999
	c4.674,0.341,1.857-6.809,4-8.999c4.669-1.293,7.652,2.292,14.998,1c-0.389-13.387,13.078-12.918,12.998-25.997
	c6.826-0.84,10.651-4.68,15.998-6.999c0.923-4.589-2.501-4.831-2-8.999C1068.549,422.247,1075.539,422.999,1075.865,431.946z"/>
<path fill-rule="evenodd" clip-rule="evenodd" d="M247.969,468.941c45.467,7.525,89.2,16.786,136.983,21.997
	c-6.719,68.605-18.56,132.089-25.997,199.976c-20.255-3.409-41.384-5.943-61.992-8.999c-33.238-21.088-68.432-40.221-101.987-60.993
	c0.882-8.783,16.34-2.99,13.999-14.998c0.093-3.093-3.02-2.979-6-2.999c1.774-1.893,0.729-6.604,1-9.999
	c8.417-3.915,8.823-15.841,12.999-23.997c3.827-1.172,7.617-2.381,9.999-4.999c-2.441-8.892-6.268-16.396-8.999-24.997
	c4.917-11.08,2.027-29.969,4.999-42.995c6.639-2.497,8.824,4.149,13.999,6C247.804,498.105,245.019,480.655,247.969,468.941z"/>
<path fill-rule="evenodd" clip-rule="evenodd" d="M1318.835,472.94c4.09,3.577,5.643,9.689,7.999,14.999
	c-8.697-6.746-19.868,2.954-24.997,8.998c6.299,1.475,10.835-1.219,15.998-3.999c2.906,2.285,5.065,2.247,7-1
	c2.982,2.351,5.584,5.08,5.999,9.999c-3.091,4.575-7.105,8.227-8.999,13.998c-5.291,1.146-7.411,0.454-12.998,0
	c-1.005,3.337,1.387,3.278,3.999,3c-0.735,3.93-1.735,7.596-3,10.998c3.727,0.939,6.999,2.333,10.999,3
	c-1.563,3.104-2.967,6.365-4.999,8.999c-20.825-0.665-32.24,16.3-36.996,34.995c-6.519-0.52-10.479,1.52-13.998,4
	c-19.809-10.359-34.011-36.188-68.991-23.997c-3.43-2.57-5.111-6.888-8.999-8.999c-41.329-3.668-57.05,18.274-94.988,17.998
	c0-2.334,0-4.667,0-7c2.802-0.531,5.198-1.468,7.999-1.999c0-2.333,0-4.666,0-6.999c10.835-3.498,17.229-11.436,27.997-14.998
	c-1.421-6.754,3.124-7.542,4.999-10.999c2.928-0.261,3.072,2.261,5.999,2c2.508-3.775,4.801-8.656,10.999-6
	c3.257-3.075,1.712-10.952,8.999-9.998c0-3,0-6,0-8.999C1215.752,495.175,1267.859,484.624,1318.835,472.94z"/>
<path fill-rule="evenodd" clip-rule="evenodd" d="M554.931,508.937c-5.97,57.688-9.247,118.07-14.998,175.978
	c-37.141-0.521-69.042-6.282-103.987-8.999c-6.43,0.535,0.525,9.592-3,8.999c-14.789-2.875-31.044-4.284-45.994-6.999
	c-2.446,3.887-1.609,11.057-3,15.998c-7.674-0.991-15.898-1.433-22.997-2.999c7.442-67.55,19.262-130.72,25.997-198.976
	C441.368,499.181,496.01,506.198,554.931,508.937z"/>
<path fill-rule="evenodd" clip-rule="evenodd" d="M1156.855,499.938c1.791,9.79-7.063,8.936-6.999,16.998
	c-4.229-0.302-10.677,1.553-11.999,6.999c-1.759-0.241-2.278-1.721-1.999-4c-4.447,3.219-10.47,4.862-9.999,12.999
	c-10.021,4.643-17.738,11.591-27.996,15.998c0,1.999,0,3.999,0,5.999c-2.872,0.795-5.309,2.024-7.999,3c0,2.999,0,5.999,0,8.998
	c-55.184,5.144-109.756,10.896-166.979,13.999c5.502-2.081,1.772-10.438,1-14.998c2.042-0.958,3.956-2.043,5.999-3
	c-0.401-14.732,9.076-19.588,7.999-34.996c15.521,1.188,26.246-2.417,40.995-1.999c2.235-0.431,0.404-4.928,1-6.999
	C1037.394,515.102,1104.12,511.878,1156.855,499.938z"/>
<path fill-rule="evenodd" clip-rule="evenodd" d="M556.931,509.937c74.981,4.463,155.246,8.568,233.971,5.999
	c3.581,38.08,8.165,75.158,5.999,118.985c-8.31-2.356-14.946-6.384-19.997-11.999c-2.88,0.12-1.735,4.264-5,4
	c-7.794-2.855-19.674-1.977-25.996,4.999c-5.663-3.669-17.424-1.24-18.998-8.999c-3.74,1.593-3.874,6.791-6.999,8.999
	c-9.066-2.609-14.389-12.775-22.997-4.999c2.139-9.191-6.317-1.631-5-9.999c-11.16-0.09-17.518-0.708-30.996-3.999
	c-0.358-14.839-16.599-0.835-22.997-12.999c0.123-24.207,2.955-45.705,3-69.991c-29.032-0.297-56.261-2.398-83.989-3.999
	C556.931,520.602,556.931,515.269,556.931,509.937z"/>
<path fill-rule="evenodd" clip-rule="evenodd" d="M553.931,527.934c28.372,1.291,55.633,3.693,84.99,4
	c0.313,23.333-4.395,46.901-2,68.991c4.532,6.428,13.535,10.333,18.998,5.999c2.725,0.941,2.289,5.044,3,7.999
	c12.234,0.605,21.053,7.287,28.996,4c3.24,3.576,7.346,5.227,6.999,9.998c12.106-5.868,14.006,2.636,24.997,5
	c3.823,0.157,3.25-4.083,5-5.999c5.828,2.504,13.615,3.049,18.998,5.999c5.654,1.321,4.966-3.7,7.999-5
	c10.47-2.774,17.765,3.057,23.997-2.999c9.48,6.493,21.755,15.223,33.995,12.998c-0.104,18.769,0.873,36.457,2,53.993
	c6.087,14.47,23.503,36.181,8.999,52.993c4.202,7.618-1.758,20.365-2,29.997c-10.455,1.209-16.621,6.708-24.996,9.998
	c-17.253,21.076-45.709,30.949-67.992,46.994c-5.96,12.798-21.298,26.084-20.997,43.995c0.18,10.691,7.316,22.492,7.999,31.996
	c-2.503-0.17-3.13,1.535-4,2.999c-4.642-1.024-7.482-3.85-9.999-6.999c-4.188-2.278-9.225,0.758-12.998,0
	c-4.751-0.954-6.166-5.213-9.999-6.999c-7.891-3.677-17.462-2.801-22.997-8.999c-1.893-15.287-13.4-22.702-8.999-36.995
	c-0.652-4.681-6.222-4.443-8.999-6.999c-6.422-5.577-6.882-17.115-15.998-19.998c-5.077-24.253-17.694-40.965-31.996-55.992
	c-10.363-0.969-22.194-0.47-27.997-6c-18.021,2.311-17.563,23.1-29.996,30.996c-13.813-11.757-32.611-14.245-39.995-29.996
	c-2.58-5.502-0.711-11.355-2-17.998c-4.168-21.489-27.568-26.946-33.996-44.994c-1.989-1.344-4.76-1.905-6.999-2.999
	c-0.238-9.762-9.668-10.329-10.999-18.998c33.793,0.215,68.257,8.391,105.987,7.999C547.165,635.82,551.235,582.564,553.931,527.934
	z"/>
<path fill-rule="evenodd" clip-rule="evenodd" d="M920.885,531.934c0.189,7.521-6.72,7.945-6.999,14.998
	c4.767,2.734,12.618-0.022,17.998,0c-5.12,4.545-1.343,17.988-10.999,17.998c0.313,4.354,2.625,6.707,3,10.998
	c-0.036,3.297-2.844,3.822-5.999,4c0.293,10.759-11.427,12.1-6.999,23.997c-6.989,0.49-11.976,9.744-8.999,13.998
	c-2.091,0.575-2.854,2.479-6,2c-2.46,14.171,0.037,21.759,2,33.995c-27.289,2.04-56.37,2.289-85.989,2c0-5.999,0-11.998,0-17.998
	c-4.711-4.194-8.069,1.345-12.998-1c-0.157-35.838,1.705-73.696-4.999-102.986C837.438,535.782,882.104,528.185,920.885,531.934z"/>
<path fill-rule="evenodd" clip-rule="evenodd" d="M1185.852,549.932c1.484,3.515,6.886,3.113,6,8.998
	c12.972,0.97,22.294-4.655,31.995-2.999c15.58,2.659,23.977,20.849,37.996,24.997c-6.9,7.098-14.317,13.679-12.999,28.996
	c-2.464,0.869-4.335,2.33-3.999,5.999c-13.497,3.835-13.485,21.177-28.996,22.997c2.322,9.682-5.855,15.646-14.999,16.998
	c-4.213-5.118-2.747-15.917-11.998-15.998c-0.794-7.205-4.69-11.308-6.999-16.998c-15.953-4.377-18.086-22.575-34.996-25.996
	c-4.104-5.563-7.043-12.288-10.998-17.998c-7.499,0.499-10.351-3.648-14.998-5.999
	C1130.618,553.356,1156.878,550.287,1185.852,549.932z"/>
<path fill-rule="evenodd" clip-rule="evenodd" d="M1123.859,563.93c-0.982,3.684-5.405,3.927-4.999,8.999
	c3.764,4.235,7.275,8.722,15.998,7.999c6.624,19.372,28.509,23.484,36.995,40.994c3.123,1.21,6.24,2.426,8.999,4
	c2.034,4.965,5.438,8.561,5.999,14.998c1.645,1.688,5.425,1.241,6.999,3c0.611,4.055,3.449,5.883,3,10.998
	c1.762,2.571,5.124,3.542,9.999,3c-7.271,12.424-12.057,28.944-10.999,47.994c-7.689,1.075-13.866-4.442-18.998,0
	c-1.288,5.984,4.766,9.858,1,14.998c-4.147,0.814-0.502-6.164-2.999-6.999c-26.727,1.937-52.954,4.372-80.99,4.999
	c-9.795-11.51-14.454-35.115-7.999-51.993c-6.047-12.703-12.323-26.052-16.998-42.995c-4.733-17.157-8.471-34.958-12.998-51.993
	C1078.857,569.587,1102.068,567.469,1123.859,563.93z"/>
<path fill-rule="evenodd" clip-rule="evenodd" d="M1053.868,572.929c7.059,23.492,11.55,49.404,18.998,71.99
	c1.685,5.108,5.74,9.275,7.999,13.999c1.244,2.602-1.248,6.61,2.999,6.999c-7.758,11.445,0.925,23.521-1.999,36.995
	c0.017,3.982,5.116,2.883,3.999,7.999c-27.953,0.71-51.615,5.711-77.99,7.999c-1.368,11.7,10.937,9.728,6.999,23.997
	c-4.546,0.786-6.969,3.696-11.998,3.999c0.657-1.342,2.137-1.862,3.999-1.999c-2.131-5.202-3.722-10.943-7.999-13.999
	c-5.075,0.924-3.522,8.477-5.999,11.999c-0.89-0.776-2.258-1.075-3.999-1c-13.37-44.251-3.541-110.177-7.999-161.979
	C1002.852,575.238,1030.175,575.897,1053.868,572.929z"/>
<path fill-rule="evenodd" clip-rule="evenodd" d="M976.878,578.928c6.896,7.61,4.431,19.498,4,28.996
	c-2.112,46.498-2.182,94.383,3.999,136.983c-13.287-0.817-27.83-4.056-31.996,6.999c-3.892-4.441-5.186-11.479-9.999-14.998
	c-0.588-5.588,2.292-7.708,2-12.999c-16.629-0.919-38.254,1.708-56.993,2c-1.602-23.142,15.385-30.026,15.998-47.994
	c-3.43-4.902-5.365-11.299-6.999-17.998c-1.426-4.426,3.384-2.615,3-5.999c-0.916-13.101-4.204-17.702-2-29.996
	c0.233-3.1,3.546-3.12,5.999-3.999c-1.186-6.333,0.379-6.96,2-11.999c1.413-1.92,4.856-1.81,6.999-2.999
	c-4.143-11.576,6.235-12.55,6.999-21.998C939.86,582.571,958.717,581.097,976.878,578.928z"/>
<path fill-rule="evenodd" clip-rule="evenodd" d="M894.889,655.918c1.127,10.768,2.301,17.451,6.999,22.997
	c0.598,2.599-0.401,3.598-3,3c-1.069,3.735,2.482,2.85,2,5.999c-8.345,9.986-15.662,21.001-14.998,39.995
	c19.024-0.64,38.038-1.29,55.993-3c-4.611,10.777,6.676,20.592,6.999,28.996c-1.273,3.06-5.726,2.94-6.999,6
	c0.534,3.798,4.26,4.405,7.999,4.999c3.314-0.019,1.015-5.65,2.999-6.999c3.428,1.34,6.49,4.585,4.999,7.999
	c-1.616,1.716-4.182,2.483-7.998,2c0.33,3.663-1.111,5.555-2,7.999c5.373,5.958,17.647,5.016,22.997,10.998
	c-5.785,12.36-13.684-4.585-23.997-2.999c-0.798-1.869-1.671-3.662-2-6c-3.103-0.104-2.854,3.146-6.999,2
	c1.049,5.836-0.453,7.435-2,11.999c-4.395,0.396-2.61-5.389-5.999-6c-5.211,2.122-9.343,5.322-12.998,8.999
	c-7.268-0.398-10.728-4.604-16.998-5.999c-0.541-3.541,3.541-2.459,3-5.999c-1.252-3.748-6.667-3.333-10.999-4
	c0.589-3.588-1.162-4.837-2-6.999c-8.279,1.26-11.12-3.596-17.997,1c0.82,2.513,1.309,5.357,4.999,4.999
	c-16.585,7.843-35.356-13.371-54.993-2.999c2.031-10.791,0.196-30.398,6.999-37.995c3.718-14.508-5.295-21.168-8.999-28.997
	c-2.32-4.903,0.063-11.237-5.999-13.998c-1.637-11.028-0.154-25.176-2-35.995C840.187,657.876,869.173,658.533,894.889,655.918z"/>
<path fill-rule="evenodd" clip-rule="evenodd" d="M164.979,698.912c2.313,2.194,3.313-2.563,7.999-0.999
	c0.17,7.829,5.766,10.232,14.998,8.998c7.442,6.09,15.02,6.405,23.997,9.999c3.735,1.069,2.85-2.482,6-2
	c5.223,1.11,7.519,5.146,12.998,6c0,46.327,0,92.654,0,138.982c3.385,4.634,9.437,0.19,13.999,0
	c0.863,10.136,12.021,9.977,12.998,19.997c3.553-0.112,3.635-3.697,7.999-2.999c-0.891-6.891,3.112-8.887,7.999-9.999
	c10.686,14.312,23.479,26.515,31.996,42.994c4.883,1.783,10.042,3.289,14.998,5c3.616,6.557,3.219,15.448-1,20.997
	c-2.876-4.789-6.927-8.404-12.998-9.999c-2.015,2.406,2.564,6.725,1,11.999c-3.017-3.708-3.96-0.292-7,1
	c-4.031-6.302-5.084-15.58-9.999-20.998c-3.235-1.235-0.764,3.235-4,2c-4.71,0.464-6.151-6.079-8.999-9.999
	c-2.841-3.909-11.245-13.662-9.999-18.997c-9.247-5.419-14.29-15.04-25.997-17.998c-2.204-2.111,1.283-2.955,1-5.999
	c-13.515,1.48-32.266-5.419-45.994-9.999c-1.329-4.003-2.585-8.08-6-9.998c-5.476-0.811-5.992,3.339-10.999,2.999
	c0,4,0,7.999,0,11.999c-2.032-3.802-6.256,0.448-8.999-3c-6.821,2.854-10.377,14.274-20.998,9.999c0.298-4.035,7.192-1.474,6.999-6
	c-0.147-2.23-2.519,1.298-5,0c-0.147-5.835,8.347-8.287,5-13.998c5.217-3.388,6.423-3.48,12.999-1.999c1.069-3.736-2.483-2.851-2-6
	c-16.114-1.115-18.702,11.294-24.997,19.998c-5.94-0.274-9.496,1.836-10.999,5.999c-0.702,3.701,4.274,1.725,4.999,3.999
	c-3.489,13.843-21.321,13.342-28.996,22.998c-7.403,0.596-13.951,2.047-18.998,4.999c2.702,2.922,2.805,1.935,1,5.999
	c-10.691-5.908-18.75,6.036-27.997,0c-4.763,5.093-11.746,1.794-15.998,6.999c-5.055-3.19-11.181-0.726-14.999-1
	c-1.247-4.246,3.326-2.673,4-4.999c13.996,3.46,18.738-4.24,28.997-6.999c3.146-0.479,3.909,1.424,5.999,2
	c5.153-3.541,12.958-8.54,19.998-6.999c1.541-4.46,4.454-7.546,9.999-7.999c2.418-7.247,6.124-13.207,9.999-18.998
	c-1.936-2.513-6.091,1.175-8.999,1c0.147-2.48,0.187-4.853-2-5c-5.233-1.566-0.638,6.695-5,6c0.802-3.469-1.489-3.844-1-6.999
	c-3.738-0.447-4.335-0.986-7-4c-5.424-1.092-6.648,2.018-10.999,2c2.385-2.738,1.983-6.041,1-9.999c0.89-0.776,2.258-1.075,4-1
	c-0.493-3.506-1.491-6.508-1-10.998c-2.009-0.506-10.528,2.769-14.998,0c0.666-5.999-2.347-8.319-4-11.999
	c1.581-2.752,3.601-5.064,5-7.999c-0.097-3.729-3.903-0.067-4-1.999c-3.488-14.69,12.85-17.665,18.998-25.997
	c4.295-0.963,1.754,4.912,5,4.999c4.329,0.329,6.621-1.378,7.999-3.999c11.829,8.06,12.924-8.955,15.998-15.998
	c-10.183-2.427-26.374-0.481-33.996-9.999c-0.06-3.727,1.008-6.324,2-8.999c-0.602-4.397-6.346-3.653-6-8.999
	c11.347-0.221,16.996-5.101,27.997-2.999c-0.016,2.983-2.6,3.399-3,5.999c3.561,3.61,10.447,7.513,16.998,4.999
	c-0.345-5.264-6.794-8.824-4-13.998c-0.803-2.529-4.116-2.55-5.999-3.999c3.139-9.944-4.646-17.249-8.999-22.997
	c4.213-7.243,10.761-1.318,16.998-3c5.08-1.37,7.52-12.81,15.998-13.998c0.82-0.115,2.257,1.593,4,1
	c5.966-2.032,8.221-6.077,17.998-4C154.518,686.333,164.933,691.145,164.979,698.912z"/>
<path fill-rule="evenodd" clip-rule="evenodd" d="M1196.851,707.911c6.098,30.898,22.18,51.812,38.995,71.991
	c2.534,2.442-2.108,2.131-1,5.999c11.096,27.233,32.827,43.83,29.996,84.989c-2.831,3.144-7.703,11.567-2.999,15.998
	c-3.192,8.684-17.794,10.582-24.997,11.999c-1.809-12.194-6.733-26.59-20.997-22.997c-7.067-5.599-6.488-18.843-15.998-21.997
	c-2.115-3.219,0.584-11.25-3-12.999c-4.606-0.939-1.918,5.415-4,6.999c-3.968-2.771-7.48-10.46-10.998-14.998
	c-1.086-1.399-6.9-5.976-6.999-6.999c-0.532-5.515,9.02-7.426,7.999-14.998c-0.79-3.341-8.053-3.968-10.999-2
	c2.525,3.517,5.037,3.816,3,9.999c-9.434-9.425-3.126-24.041-4-39.995c-1.847-4.485-5.817-6.848-6.999-11.998
	c-4.326-0.007-6.345-2.321-10.998-2c-10.333-10.45-20.396-30.305-40.995-23.997c-5.188,9.477-15.108,14.222-26.997,16.998
	c-9.625-20.241-44.414-25.473-67.991-14.998c3.673-13.671-6.137-13.86-6.999-22.997c27.327-0.336,48.579-6.748,75.99-6.999
	c3.399,1.267,4.611,4.721,5.999,7.999c28.411-0.586,55.303-2.69,81.99-5c-0.774,5.107,0.401,8.265,5.999,6.999
	c4.12-4.844-2.458-12.815,0-15.998C1184.063,705.08,1189.912,709.241,1196.851,707.911z"/>
<path fill-rule="evenodd" clip-rule="evenodd" d="M384.952,814.898c0.429,4.761-1.189,7.477-3,9.998
	c-5.493,0.16-8.249-2.416-11.999-3.999C369.807,814.204,378.985,812.223,384.952,814.898z"/>
<path fill-rule="evenodd" clip-rule="evenodd" d="M359.955,821.897c-1.423,2.576-2.342,5.656-5.999,5.999
	C355.414,825.354,355.859,821.801,359.955,821.897z"/>
<path fill-rule="evenodd" clip-rule="evenodd" d="M428.946,831.896c4.439,4.228,6.443,10.889,10.999,14.999
	c-6.397,1.161-8.79-3.92-13.999-1c-1.599-3.4-4.656-5.343-4.999-9.999C424.172,835.12,426.856,833.806,428.946,831.896z"/>
<path fill-rule="evenodd" clip-rule="evenodd" d="M453.943,849.894c7.24,1.141,10.179,0.438,17.998,1
	c-2.994,7.034-11.69,1.787-18.998,2c-0.184-0.851,0.39-0.943,1-1C453.943,851.227,453.943,850.561,453.943,849.894z"/>
<path fill-rule="evenodd" clip-rule="evenodd" d="M473.941,855.893c6.318,4.015,17.401,3.264,21.997,8.999
	C489.948,877.838,471.051,866.118,473.941,855.893z"/>
<path fill-rule="evenodd" clip-rule="evenodd" d="M460.942,860.893c2.224-2.801,7.558-0.292,7.999,1.999
	c-0.691,1.976-2.667,2.666-4.999,3C462.771,864.396,462.699,861.802,460.942,860.893z"/>
<path fill-rule="evenodd" clip-rule="evenodd" d="M500.938,882.89c7.507,3.492,14.658,7.339,22.997,9.999
	c3.864,5.134,4.072,13.925,11.999,14.998c-6.085,12.302-23.966,7.161-27.997,21.997c-3.103-1.563-6.557-2.775-7.999-5.999
	c2.115-9.311-1.493-16.563-4.999-22.997c2.109-3.224,4.776-5.89,7.999-7.999C503.497,888.473,497.667,886.89,500.938,882.89z"/>
</svg>
